<svg xmlns="http://www.w3.org/2000/svg" width="25.265" height="25.265" viewBox="0 0 25.265 25.265">
  <g id="Group_553" data-name="Group 553" transform="translate(-270 -551)">
    <path id="Path_689" data-name="Path 689" d="M10.955,0H14.31a1.64,1.64,0,0,1,.246.4c.145.539.267,1.084.386,1.629a.281.281,0,0,0,.241.256,10.207,10.207,0,0,1,2.964,1.236.265.265,0,0,0,.33-.005c.484-.311.974-.612,1.462-.914.257-.159.378-.148.587.061Q21.567,3.7,22.6,4.737a.386.386,0,0,1,.06.589c-.3.489-.6.979-.914,1.463a.265.265,0,0,0-.007.33,10.1,10.1,0,0,1,1.23,2.941.3.3,0,0,0,.265.264c.546.114,1.09.239,1.629.384a1.627,1.627,0,0,1,.4.247V14.31a1.646,1.646,0,0,1-.4.246c-.539.145-1.083.268-1.629.385a.281.281,0,0,0-.258.24,10.129,10.129,0,0,1-1.236,2.964.265.265,0,0,0,.008.33c.31.484.612.974.914,1.463a.386.386,0,0,1-.062.588q-1.035,1.04-2.075,2.075a.386.386,0,0,1-.588.06c-.489-.3-.979-.6-1.462-.915a.266.266,0,0,0-.33,0,10.243,10.243,0,0,1-2.964,1.236.266.266,0,0,0-.235.233c-.119.553-.244,1.106-.39,1.653a1.644,1.644,0,0,1-.245.4H10.955a1.636,1.636,0,0,1-.246-.4c-.146-.547-.27-1.1-.39-1.653a.269.269,0,0,0-.235-.236A10.079,10.079,0,0,1,7.12,21.741a.266.266,0,0,0-.33.008c-.485.309-.974.611-1.463.913-.256.158-.38.147-.588-.06Q3.7,21.566,2.664,20.526a.385.385,0,0,1-.062-.588c.3-.489.6-.979.914-1.463a.264.264,0,0,0,.008-.33,10.1,10.1,0,0,1-1.236-2.964.283.283,0,0,0-.257-.242C1.485,14.822.94,14.7.4,14.554A1.66,1.66,0,0,1,0,14.31V10.955a1.639,1.639,0,0,1,.4-.245c.547-.146,1.1-.27,1.653-.391a.268.268,0,0,0,.233-.236A10.147,10.147,0,0,1,3.523,7.118a.265.265,0,0,0-.006-.33C3.206,6.3,2.9,5.814,2.6,5.326a.385.385,0,0,1,.061-.587Q3.7,3.7,4.738,2.662c.21-.209.33-.22.587-.061.5.306.988.62,1.489.918a.324.324,0,0,0,.278.007A11.249,11.249,0,0,1,10.1,2.27a.353.353,0,0,0,.205-.219c.142-.548.254-1.1.4-1.651a1.643,1.643,0,0,1,.245-.4M.691,13.922c.581.134,1.146.277,1.716.392a.573.573,0,0,1,.509.508,9.129,9.129,0,0,0,1.15,2.893c.4.654.4.536-.01,1.195L3.315,20.1l1.84,1.852c.469-.291.972-.588,1.456-.911a.555.555,0,0,1,.7,0,8.988,8.988,0,0,0,3.071,1.289.643.643,0,0,1,.583.583c.1.555.25,1.1.379,1.651h2.573c.018-.066.038-.128.053-.191.126-.535.26-1.069.373-1.607a.465.465,0,0,1,.4-.4,9.611,9.611,0,0,0,3.28-1.362.467.467,0,0,1,.568,0c.463.3.935.581,1.4.878a.2.2,0,0,0,.312-.027q.766-.786,1.552-1.553a.2.2,0,0,0,.035-.311c-.286-.441-.547-.9-.842-1.334a.567.567,0,0,1,.006-.718,9.076,9.076,0,0,0,1.285-3.074.628.628,0,0,1,.57-.565c.555-.1,1.1-.249,1.666-.38,0-.83,0-1.643-.007-2.456,0-.056-.094-.144-.158-.16-.526-.131-1.053-.259-1.583-.367a.53.53,0,0,1-.467-.46,9.287,9.287,0,0,0-1.323-3.19.542.542,0,0,1,.006-.676c.326-.492.628-1,.925-1.477L20.127,3.3c-.5.311-1.025.632-1.544.962a.454.454,0,0,1-.547,0,9.727,9.727,0,0,0-3.3-1.372.45.45,0,0,1-.388-.385c-.117-.546-.257-1.087-.376-1.632-.03-.139-.084-.187-.227-.185q-1.11.01-2.22,0c-.145,0-.2.048-.226.186-.114.53-.252,1.054-.361,1.585a.514.514,0,0,1-.45.446A9.371,9.371,0,0,0,7.274,4.24a.515.515,0,0,1-.634,0c-.5-.327-1.014-.636-1.5-.941L3.3,5.133c.313.5.633,1.029.965,1.547a.454.454,0,0,1,0,.547,9.664,9.664,0,0,0-1.374,3.3.466.466,0,0,1-.407.4c-.538.114-1.073.243-1.606.379-.072.018-.18.107-.181.164-.012.813-.008,1.625-.008,2.454" transform="translate(270 551)"/>
    <path id="Path_690" data-name="Path 690" d="M90,96.718a6.711,6.711,0,1,1,6.7,6.706A6.714,6.714,0,0,1,90,96.718m.691-.006a6.02,6.02,0,1,0,6.027-6.019,6.025,6.025,0,0,0-6.027,6.019" transform="translate(185.921 466.92)" fill="#c51724"/>
    <rect id="Rectangle_266" data-name="Rectangle 266" width="25" height="25" transform="translate(270 551)" fill="none"/>
  </g>
</svg>
