<svg xmlns="http://www.w3.org/2000/svg" width="22.711" height="20" viewBox="0 0 22.711 20">
  <g id="Group_557" data-name="Group 557" transform="translate(-239 -24)">
    <path id="Path_693" data-name="Path 693" d="M12.063,0c.44.062.884.1,1.32.189a11.062,11.062,0,0,1,8.074,6.022A11.286,11.286,0,0,1,19,19.733a1.9,1.9,0,0,1-.237.2.326.326,0,0,1-.453-.058.337.337,0,0,1-.018-.459,1.13,1.13,0,0,1,.153-.15,10.413,10.413,0,0,0,3.426-9.309A10.618,10.618,0,0,0,1.042,8.763a10.389,10.389,0,0,0,3.2,10.506.605.605,0,0,1,.21.3.431.431,0,0,1-.133.345.592.592,0,0,1-.373.028c-.06-.007-.116-.079-.168-.128A11.141,11.141,0,0,1,.021,10.646,11.319,11.319,0,0,1,9.166.21C9.649.117,10.14.069,10.627,0Z" transform="translate(239 24)" fill="#fff"/>
    <path id="Path_694" data-name="Path 694" d="M48.919,57.46a8.252,8.252,0,0,1,7.038-8.251,8.062,8.062,0,0,1,6.667,2.006,1.323,1.323,0,0,1,.172.166.355.355,0,0,1-.47.523,1.342,1.342,0,0,1-.164-.138,7.485,7.485,0,0,0-12.354,4.073,7.268,7.268,0,0,0,2.735,7.421c.049.041.1.077.151.117.216.176.265.384.132.555s-.341.185-.568.017a8.247,8.247,0,0,1-3.339-6.489" transform="translate(193.202 -21.987)" fill="#fff"/>
    <path id="Path_695" data-name="Path 695" d="M108.827,113.407a4.4,4.4,0,0,1,8.742-.735,4.28,4.28,0,0,1-.758,3.288c-.213.3-.405.373-.606.232s-.2-.345.015-.645a3.681,3.681,0,1,0-6.008-.037c.042.059.087.114.125.175a.355.355,0,0,1-.085.507.33.33,0,0,1-.485-.085,8.9,8.9,0,0,1-.637-1.116,3.817,3.817,0,0,1-.3-1.585" transform="translate(137.116 -78.051)" fill="#fe0"/>
    <path id="Path_696" data-name="Path 696" d="M248.33,105.185a8.324,8.324,0,0,1-3.344,6.933c-.226.174-.426.168-.568-.009s-.093-.39.143-.569a7.522,7.522,0,0,0,1.759-10.216c-.035-.053-.074-.1-.107-.158a.359.359,0,1,1,.594-.4,7.807,7.807,0,0,1,1.323,3.018c.1.506.149,1.023.2,1.4" transform="translate(10.25 -70.16)" fill="#fff"/>
  </g>
</svg>
