<svg xmlns="http://www.w3.org/2000/svg" width="20.007" height="20" viewBox="0 0 20.007 20">
  <g id="Group_556" data-name="Group 556" transform="translate(-237.05 -32.492)">
    <path id="Path_691" data-name="Path 691" d="M20.007,8.2c-.065.383-.112.771-.2,1.15a7.483,7.483,0,0,1-2.472,4.123,7.4,7.4,0,0,1-3.883,1.77,7.479,7.479,0,0,1-5.22-1.126c-.354-.227-.686-.489-1.016-.726l-.574.554A1.234,1.234,0,0,1,6.59,15.7Q4.638,17.65,2.686,19.6a1.614,1.614,0,0,1-.725.4H1.609A2.726,2.726,0,0,1,.222,18.887a1.139,1.139,0,0,1,.039-1.4,2.858,2.858,0,0,1,.222-.246c1.219-1.221,2.451-2.428,3.653-3.666a1.316,1.316,0,0,1,1.93-.224l.55-.571c-.247-.342-.523-.688-.759-1.059a7.387,7.387,0,0,1-1.123-3.21,7.644,7.644,0,0,1,2.86-6.862A7.654,7.654,0,0,1,18.228,2.774a7.472,7.472,0,0,1,1.66,3.606c.047.281.08.563.119.845Zm-.82-.535a6.853,6.853,0,1,0-6.855,6.854,6.861,6.861,0,0,0,6.855-6.854M1.79,19.224a1.655,1.655,0,0,0,.324-.2q1.958-1.947,3.907-3.9a.417.417,0,0,0-.011-.665c-.145-.15-.293-.3-.441-.442a.439.439,0,0,0-.723,0c-.333.33-.663.662-.994.993Q2.43,16.434,1.01,17.856a.431.431,0,0,0,0,.721c.15.153.3.312.457.453a2.089,2.089,0,0,0,.324.193" transform="translate(237.05 32.491)" fill="#fff"/>
    <path id="Path_692" data-name="Path 692" d="M255.146,61.64l-.477-.49a4.518,4.518,0,0,0,0-6.342l.484-.473a5.171,5.171,0,0,1-.006,7.306" transform="translate(-1.005 -18.06)" fill="#fe0"/>
  </g>
</svg>
