<svg id="Group_107" data-name="Group 107" xmlns="http://www.w3.org/2000/svg" xmlns:xlink="http://www.w3.org/1999/xlink" width="10.075" height="18.7" viewBox="0 0 10.075 18.7">
  <defs>
    <clipPath id="clip-path">
      <rect id="Rectangle_73" data-name="Rectangle 73" width="10.075" height="18.7" fill="#fff"/>
    </clipPath>
  </defs>
  <g id="Group_106" data-name="Group 106" clip-path="url(#clip-path)">
    <path id="Path_365" data-name="Path 365" d="M9.5,0l.133.055A.714.714,0,0,1,9.9,1.18c-.05.061-.107.116-.163.172Q5.822,5.272,1.9,9.19a1.277,1.277,0,0,1-.178.127q0,.038,0,.076a1.236,1.236,0,0,1,.178.125q3.941,3.937,7.879,7.876a.773.773,0,0,1,.275.7.711.711,0,0,1-1.135.461,1.661,1.661,0,0,1-.176-.159L.31,9.962a.747.747,0,0,1,0-1.214Q4.529,4.531,8.748.318A3.117,3.117,0,0,1,9.2,0Z" transform="translate(0)" fill="#fff"/>
  </g>
</svg>
