<svg xmlns="http://www.w3.org/2000/svg" width="19" height="20" viewBox="0 0 19 20">
  <g id="Group_860" data-name="Group 860" transform="translate(-335 -24)">
    <rect id="Rectangle_62" data-name="Rectangle 62" width="19" height="20" transform="translate(335 24)" fill="none"/>
    <path id="Path_816" data-name="Path 816" d="M24.51,0c.1.031.211.058.315.094a1.675,1.675,0,0,1,1.117,1.6c.006.286.009.572,0,.857a.215.215,0,0,0,.176.247A5.829,5.829,0,0,1,30.1,8.426c0,.961-.026,1.925.034,2.883a5.543,5.543,0,0,0,1.827,3.78c.085.08.176.155.258.237a1.227,1.227,0,0,1,.279,1.365,1.19,1.19,0,0,1-1.142.768c-1.344.01-2.689,0-4.034,0h-.151c-.023.1-.041.19-.068.282a2.882,2.882,0,0,1-2.367,2.176.776.776,0,0,0-.106.037h-.7c-.131-.032-.263-.059-.391-.1a2.884,2.884,0,0,1-2.107-2.229c-.012-.05-.025-.1-.042-.168h-.21c-1.325,0-2.65.006-3.975,0a1.176,1.176,0,0,1-1.107-.7,1.193,1.193,0,0,1,.118-1.287,1.685,1.685,0,0,1,.256-.266,5.771,5.771,0,0,0,1.992-4.442c.007-.877-.009-1.754.008-2.631a5.8,5.8,0,0,1,3.916-5.316.278.278,0,0,0,.233-.324,7.285,7.285,0,0,1,.014-.993A1.63,1.63,0,0,1,23.954.034.634.634,0,0,0,24.043,0Zm-.235,16.634s0-.007,0-.01m2.02.849H22.258a2.059,2.059,0,0,0,4.037,0" transform="translate(320.574 24)" fill="#ffbe00"/>
    <path id="Path_317" data-name="Path 317" d="M24.51,0c.1.031.211.058.315.094a1.675,1.675,0,0,1,1.117,1.6c.006.286.009.572,0,.857a.215.215,0,0,0,.176.247A5.829,5.829,0,0,1,30.1,8.426c0,.961-.026,1.925.034,2.883a5.543,5.543,0,0,0,1.827,3.78c.085.08.176.155.258.237a1.227,1.227,0,0,1,.279,1.365,1.19,1.19,0,0,1-1.142.768c-1.344.01-2.689,0-4.034,0h-.151c-.023.1-.041.19-.068.282a2.882,2.882,0,0,1-2.367,2.176.776.776,0,0,0-.106.037h-.7c-.131-.032-.263-.059-.391-.1a2.884,2.884,0,0,1-2.107-2.229c-.012-.05-.025-.1-.042-.168h-.21c-1.325,0-2.65.006-3.975,0a1.176,1.176,0,0,1-1.107-.7,1.193,1.193,0,0,1,.118-1.287,1.685,1.685,0,0,1,.256-.266,5.771,5.771,0,0,0,1.992-4.442c.007-.877-.009-1.754.008-2.631a5.8,5.8,0,0,1,3.916-5.316.278.278,0,0,0,.233-.324,7.285,7.285,0,0,1,.014-.993A1.63,1.63,0,0,1,23.954.034.634.634,0,0,0,24.043,0Zm-.235,16.634s0-.007,0-.01q1.247,0,2.493,0l4.4.009a1.152,1.152,0,0,0,.27-.021.4.4,0,0,0,.231-.645,1.1,1.1,0,0,0-.151-.151,6.567,6.567,0,0,1-2.255-5.027c-.006-.805,0-1.611,0-2.416a5.3,5.3,0,0,0-.051-.776,4.988,4.988,0,0,0-9.921.58c-.013.883,0,1.766,0,2.65a6.533,6.533,0,0,1-1.7,4.44c-.2.227-.436.426-.652.641a.4.4,0,0,0-.113.444.406.406,0,0,0,.365.278,1.859,1.859,0,0,0,.214.005h6.876m2.02.839H22.258a2.059,2.059,0,0,0,4.037,0M25.1,2.517c0-.293.009-.6,0-.9a.818.818,0,0,0-.769-.786.794.794,0,0,0-.849.622,7.677,7.677,0,0,0-.01,1.063Z" transform="translate(320.574 24)" fill="#fff"/>
    <path id="Path_318" data-name="Path 318" d="M0,28.639a9.943,9.943,0,0,1,2.716-6.4,3.033,3.033,0,0,1,.219-.221.407.407,0,0,1,.564,0,.412.412,0,0,1,.024.579c-.24.281-.5.544-.73.834A8.943,8.943,0,0,0,.84,28.916a1.271,1.271,0,0,1-.027.27.4.4,0,0,1-.4.309.4.4,0,0,1-.394-.314,1.458,1.458,0,0,1-.02-.27c0-.091,0-.181,0-.272" transform="translate(335.702 3.234)" fill="#fe0"/>
    <path id="Path_319" data-name="Path 319" d="M285.86,28.615c0,.117,0,.233,0,.35,0,.3-.155.49-.4.5s-.412-.181-.437-.49c-.044-.542-.066-1.089-.16-1.623a8.845,8.845,0,0,0-2.263-4.508c-.062-.067-.125-.132-.187-.2-.216-.23-.238-.474-.058-.651s.428-.16.662.08a9.99,9.99,0,0,1,2.846,6.542" transform="translate(68.14 3.266)" fill="#fe0"/>
  </g>
</svg>
