<svg xmlns="http://www.w3.org/2000/svg" width="100.5" height="16.124" viewBox="0 0 100.5 16.124">
  <g id="Group_931" data-name="Group 931" transform="translate(-14775.088 -1374)">
    <path id="Path_750" data-name="Path 750" d="M174.733,259.6a2.582,2.582,0,0,0-2.892-2.692h-7.809v1.573h7.862a1.131,1.131,0,0,1,1.253,1.186,1.165,1.165,0,0,1-1.253,1.253h-3.505c-.986,0-1.413.413-1.413,1.426V265.9h1.573v-3.252a.2.2,0,0,1,.227-.227h2.346l2.052,3.478h1.746l-2.092-3.6A2.65,2.65,0,0,0,174.733,259.6Z" transform="translate(14625.747 1117.252)" fill="#c51724"/>
    <path id="Path_751" data-name="Path 751" d="M132.7,262.919a1.288,1.288,0,0,1-1.479,1.413h-1.6c-1.039,0-1.493-.52-1.493-1.413v-6.011h-1.6v6.13a2.565,2.565,0,0,0,2.905,2.865h1.892a2.574,2.574,0,0,0,2.919-2.865v-3.373H132.7Z" transform="translate(14657.079 1117.252)" fill="#c51724"/>
    <path id="Path_752" data-name="Path 752" d="M79.407,256.908H74.8v1.573h4.678a1.13,1.13,0,0,1,1.239,1.2,1.161,1.161,0,0,1-1.253,1.24H76.222c-.986,0-1.413.413-1.413,1.426V265.9h1.573v-3.252a.2.2,0,0,1,.227-.227h2.8A2.672,2.672,0,0,0,82.3,259.6,2.582,2.582,0,0,0,79.407,256.908Z" transform="translate(14700.292 1117.252)" fill="#c51724"/>
    <rect id="Rectangle_419" data-name="Rectangle 419" width="1.573" height="1.831" transform="translate(14811.141 1374.16)" fill="#b6091c"/>
    <path id="Path_753" data-name="Path 753" d="M236.555,261.413c0,3.012,1.439,4.491,4.065,4.491h7.016v-1.573H240.62c-1.746,0-2.492-.866-2.492-2.919s.76-2.932,2.492-2.932H244.1v-1.573H240.62C238.008,256.908,236.555,258.387,236.555,261.413Z" transform="translate(14565.164 1117.252)" fill="#c51724"/>
    <path id="Path_754" data-name="Path 754" d="M475.266,264.331c-.92,0-1.359-.426-1.359-1.133,0-.733.467-1.093,1.373-1.093h4.465V260.68h-4.425c-.906,0-1.373-.333-1.373-1.066,0-.693.413-1.133,1.359-1.133h4.5v-1.573h-4.5c-2.119,0-3.012,1.013-3.012,2.452a2.005,2.005,0,0,0,1.266,2.026,2.062,2.062,0,0,0-1.293,2.066c0,1.4.866,2.452,3,2.452h4.558v-1.573Z" transform="translate(14368.258 1117.252)" fill="#c51724"/>
    <path id="Path_755" data-name="Path 755" d="M420.05,260.613h-2.105c-1.053,0-1.333-.52-1.333-1.066,0-.626.36-1.066,1.173-1.066H422.4v-1.573h-4.558c-2,0-2.8,1.093-2.8,2.585,0,1.253.56,2.6,2.959,2.6h2.092c1.106,0,1.413.533,1.413,1.12,0,.653-.387,1.119-1.24,1.119H415.2l.82,1.573h4.191c2.052,0,2.865-1.119,2.865-2.639C423.076,261.972,422.5,260.613,420.05,260.613Z" transform="translate(14416.064 1117.252)" fill="#c51724"/>
    <path id="Path_756" data-name="Path 756" d="M299.954,260.573h-4.6v0h-1.573V263.5h1.573v-1.356h4.6V265.9h1.586v-9h-1.586Z" transform="translate(14517.357 1117.252)" fill="#c51724"/>
    <path id="Path_757" data-name="Path 757" d="M354.039,255.936a1.778,1.778,0,0,0-1.893,1.16l-3.159,8h1.732l2.852-7.237a.455.455,0,0,1,.453-.307.429.429,0,0,1,.44.307l2.732,7.237h1.746l-3.039-8A1.745,1.745,0,0,0,354.039,255.936Z" transform="translate(14471.241 1118.064)" fill="#c51724"/>
    <g id="Group_800" data-name="Group 800" transform="translate(14849.805 1374.279)">
      <path id="Path_758" data-name="Path 758" d="M531.674,265.384l-.459,1.293H528.63l3.232-9.049h3.232l3.232,9.049H535.74l-.459-1.293Zm1.8-5.042L532.6,262.8h1.758Z" transform="translate(-528.63 -257.628)"/>
      <path id="Path_759" data-name="Path 759" d="M590.7,264.092v2.586H588.11v-9.049h4.525q3.232,0,3.232,3.232t-3.232,3.232Zm0-3.878v1.293h1.939a.646.646,0,0,0,0-1.293Z" transform="translate(-578.318 -257.628)"/>
      <path id="Path_760" data-name="Path 760" d="M640.714,264.092v2.586h-2.585v-9.049h4.525q3.232,0,3.232,3.232t-3.232,3.232Zm0-3.878v1.293h1.939a.646.646,0,0,0,0-1.293Z" transform="translate(-620.102 -257.628)"/>
    </g>
    <path id="Path_761" data-name="Path 761" d="M396.291,305.127l2.074,5.042a4.813,4.813,0,0,0,6.395,2.572l7.764-3.81-7.031,2.262a4.813,4.813,0,0,1-5.919-2.623l-1.4-3.164Z" transform="translate(14431.726 1076.972)" fill="#c51724"/>
    <path id="Path_762" data-name="Path 762" d="M476.8,322.934s4.745-.608,4.636-.128a28.733,28.733,0,0,1-2.505,3.338S481.28,322.948,476.8,322.934Z" transform="translate(14364.471 1062.357)" fill="#c51724"/>
    <path id="Path_763" data-name="Path 763" d="M356.81,304.075h-5.288l.762-1.427,3.935-.037Z" transform="translate(14469.125 1079.073)" fill="#c51724"/>
    <rect id="Rectangle_420" data-name="Rectangle 420" width="1.573" height="2.913" transform="translate(14811.141 1374.16)"/>
  </g>
</svg>
