<svg xmlns="http://www.w3.org/2000/svg" width="138.01" height="22.142" viewBox="0 0 138.01 22.142">
  <g id="Group_801" data-name="Group 801" transform="translate(-90.088 -1396)">
    <path id="Path_750" data-name="Path 750" d="M178.727,260.6c0-1.977-1.19-3.7-3.972-3.7H164.032v2.16h10.8a1.553,1.553,0,0,1,1.72,1.629,1.6,1.6,0,0,1-1.72,1.72h-4.813c-1.354,0-1.94.567-1.94,1.958v4.886h2.16V264.8a.273.273,0,0,1,.311-.311h3.221l2.819,4.777h2.4l-2.874-4.941A3.639,3.639,0,0,0,178.727,260.6Z" transform="translate(-53.769 1139.312)" fill="#fff"/>
    <path id="Path_751" data-name="Path 751" d="M135,265.162a1.768,1.768,0,0,1-2.031,1.94h-2.2c-1.427,0-2.05-.714-2.05-1.94v-8.254h-2.2v8.419c0,2.6,1.354,3.935,3.99,3.935h2.6c2.636,0,4.008-1.336,4.008-3.935v-4.633H135Z" transform="translate(-24.742 1139.312)" fill="#fff"/>
    <path id="Path_752" data-name="Path 752" d="M81.128,256.908H74.8v2.16H81.22a1.551,1.551,0,0,1,1.7,1.647,1.6,1.6,0,0,1-1.72,1.7H76.754c-1.354,0-1.94.567-1.94,1.958v4.886h2.16V264.8a.272.272,0,0,1,.311-.311h3.843A3.67,3.67,0,0,0,85.1,260.6C85.1,258.628,83.91,256.908,81.128,256.908Z" transform="translate(15.292 1139.312)" fill="#fff"/>
    <rect id="Rectangle_419" data-name="Rectangle 419" width="2.16" height="2.514" transform="translate(139.597 1396.22)" fill="#b6091c"/>
    <path id="Path_753" data-name="Path 753" d="M236.555,263.094c0,4.136,1.977,6.167,5.582,6.167h9.635V267.1h-9.635c-2.4,0-3.422-1.19-3.422-4.008,0-2.837,1.043-4.026,3.422-4.026h4.777v-2.16h-4.777C238.55,256.908,236.555,258.94,236.555,263.094Z" transform="translate(-109.896 1139.312)" fill="#fff"/>
    <path id="Path_754" data-name="Path 754" d="M476.385,267.1c-1.263,0-1.867-.586-1.867-1.556,0-1.007.641-1.5,1.885-1.5h6.131v-1.958h-6.076c-1.245,0-1.885-.458-1.885-1.464,0-.952.567-1.556,1.867-1.556h6.186v-2.16H476.44c-2.91,0-4.136,1.391-4.136,3.367a2.754,2.754,0,0,0,1.739,2.782,2.832,2.832,0,0,0-1.775,2.837c0,1.922,1.189,3.367,4.118,3.367h6.259V267.1Z" transform="translate(-292.318 1139.312)" fill="#fff"/>
    <path id="Path_755" data-name="Path 755" d="M421.92,262h-2.891c-1.446,0-1.83-.714-1.83-1.464,0-.86.494-1.464,1.61-1.464h6.333v-2.16h-6.259c-2.745,0-3.844,1.5-3.844,3.55,0,1.72.769,3.569,4.063,3.569h2.873c1.519,0,1.94.732,1.94,1.537,0,.9-.531,1.537-1.7,1.537h-6.954l1.126,2.16h5.756c2.818,0,3.935-1.537,3.935-3.624C426.075,263.863,425.288,262,421.92,262Z" transform="translate(-248.029 1139.312)" fill="#fff"/>
    <path id="Path_756" data-name="Path 756" d="M302.257,261.941h-6.314v0h-2.16v4.025h2.16V264.1h6.314v5.161h2.178V256.908h-2.178Z" transform="translate(-154.187 1139.312)" fill="#fff"/>
    <path id="Path_757" data-name="Path 757" d="M355.924,255.936a2.442,2.442,0,0,0-2.6,1.592l-4.337,10.981h2.379l3.917-9.938a.624.624,0,0,1,.622-.421.588.588,0,0,1,.6.421l3.752,9.938h2.4l-4.173-10.981A2.4,2.4,0,0,0,355.924,255.936Z" transform="translate(-196.91 1140.064)" fill="#fff"/>
    <g id="Group_800" data-name="Group 800" transform="translate(192.691 1396.382)">
      <path id="Path_758" data-name="Path 758" d="M532.811,268.279l-.63,1.775H528.63l4.438-12.427h4.438l4.438,12.427h-3.55l-.63-1.775Zm2.477-6.923-1.207,3.373h2.414Z" transform="translate(-528.63 -257.628)" fill="#fe0"/>
      <path id="Path_759" data-name="Path 759" d="M591.661,266.5v3.551H588.11V257.628h6.214q4.438,0,4.438,4.438t-4.438,4.438Zm0-5.326v1.775h2.663a.888.888,0,0,0,0-1.775Z" transform="translate(-574.663 -257.628)" fill="#fe0"/>
      <path id="Path_760" data-name="Path 760" d="M641.68,266.5v3.551h-3.551V257.628h6.213q4.438,0,4.438,4.438t-4.438,4.438Zm0-5.326v1.775h2.663a.888.888,0,0,0,0-1.775Z" transform="translate(-613.373 -257.628)" fill="#fe0"/>
    </g>
    <path id="Path_761" data-name="Path 761" d="M396.291,305.127l2.847,6.924a6.609,6.609,0,0,0,8.782,3.532l10.662-5.232-9.655,3.107a6.609,6.609,0,0,1-8.128-3.6l-1.919-4.345Z" transform="translate(-233.519 1101.994)" fill="#fff"/>
    <path id="Path_762" data-name="Path 762" d="M476.8,323.051s6.516-.836,6.366-.175-3.441,4.584-3.441,4.584S482.953,323.07,476.8,323.051Z" transform="translate(-295.827 1088.455)" fill="#fff"/>
    <path id="Path_763" data-name="Path 763" d="M358.784,304.621h-7.262l1.047-1.959,5.4-.051Z" transform="translate(-198.872 1103.941)" fill="#fff"/>
    <rect id="Rectangle_420" data-name="Rectangle 420" width="2.16" height="4" transform="translate(139.597 1396.22)" fill="#fe0"/>
  </g>
</svg>
