<svg id="Group_562" data-name="Group 562" xmlns="http://www.w3.org/2000/svg" xmlns:xlink="http://www.w3.org/1999/xlink" width="14.603" height="21.71" viewBox="0 0 14.603 21.71">
  <defs>
    <clipPath id="clip-path">
      <rect id="Rectangle_268" data-name="Rectangle 268" width="14.603" height="21.71" fill="none"/>
    </clipPath>
  </defs>
  <g id="Group_561" data-name="Group 561" clip-path="url(#clip-path)">
    <path id="Path_697" data-name="Path 697" d="M14.128,0A.662.662,0,0,0,14.2.043a.637.637,0,0,1,.391.719.646.646,0,0,1-.653.5c-.318.006-.636,0-.954,0H8.26a6.438,6.438,0,0,1,2.515,4.413h.241c.983,0,1.965,0,2.947,0a.618.618,0,0,1,.614.46.6.6,0,0,1-.278.693,1.029,1.029,0,0,1-.445.1q-1.442.013-2.884,0c-.167,0-.215.059-.234.213a6.336,6.336,0,0,1-4.89,5.362,8.894,8.894,0,0,1-1.491.163c-.691.027-1.383.007-2.15.007.127.117.211.194.294.272l7.656,7.239c.133.126.267.252.4.381a.652.652,0,0,1,.073.944.634.634,0,0,1-.942-.023L3.973,16.084C2.746,14.923,1.515,13.767.3,12.6a.964.964,0,0,1-.278-.478.626.626,0,0,1,.677-.709c1.244,0,2.488,0,3.732,0A4.958,4.958,0,0,0,7.4,10.458,5.016,5.016,0,0,0,9.484,7.046a.9.9,0,0,0,0-.11H.814A1.675,1.675,0,0,1,.5,6.915.619.619,0,0,1,0,6.269a.625.625,0,0,1,.565-.588c.084-.008.17,0,.254,0H9.528c-.1-.377-.17-.735-.291-1.074A5.069,5.069,0,0,0,4.566,1.27c-1.286-.017-2.573,0-3.859-.006A.641.641,0,0,1,0,.552.71.71,0,0,1,.471,0Z" transform="translate(0)"/>
  </g>
</svg>
