<svg id="Group_127" data-name="Group 127" xmlns="http://www.w3.org/2000/svg" xmlns:xlink="http://www.w3.org/1999/xlink" width="23.638" height="21.076" viewBox="0 0 23.638 21.076">
  <defs>
    <clipPath id="clip-path">
      <rect id="Rectangle_87" data-name="Rectangle 87" width="23.638" height="21.076" fill="#fff"/>
    </clipPath>
  </defs>
  <g id="Group_126" data-name="Group 126" clip-path="url(#clip-path)">
    <path id="Path_389" data-name="Path 389" d="M0,8.649A3.706,3.706,0,0,1,.44,8.2Q5.877,4.2,11.323.223a.667.667,0,0,1,.994,0Q17.8,4.233,23.273,8.249a2.681,2.681,0,0,1,.364.4v.323c-.283.531-.626.605-1.117.245Q17.263,5.366,12.007,1.512a.261.261,0,0,0-.374,0Q6.379,5.369,1.118,9.216C.626,9.577.282,9.5,0,8.972V8.649" transform="translate(0 0)" fill="#fff"/>
    <path id="Path_390" data-name="Path 390" d="M43.536,164.15h4.914v-.277c0-1.662-.005-3.324,0-4.986a3.067,3.067,0,0,1,6.123-.316c.021.3.017.6.018.9q0,2.193,0,4.386v.29h4.914v-.267q0-4.7,0-9.395c0-.457.259-.732.659-.706a.588.588,0,0,1,.548.478,1.336,1.336,0,0,1,.021.252q0,5.067,0,10.133a.638.638,0,0,1-.213.581.846.846,0,0,1-.441.155q-3.035.015-6.07.005a.61.61,0,0,1-.646-.7c0-1.939,0-3.878,0-5.817a1.843,1.843,0,1,0-3.686-.016c-.006,1.939,0,3.878-.01,5.817a.91.91,0,0,1-.194.538.649.649,0,0,1-.451.172c-2.023.011-4.047.009-6.07.006a.6.6,0,0,1-.643-.61c-.006-.077,0-.154,0-.231q0-4.963,0-9.926a2.267,2.267,0,0,1,.015-.322.591.591,0,0,1,.629-.518.6.6,0,0,1,.579.553c.008.084,0,.169,0,.254q0,4.64,0,9.279Z" transform="translate(-39.702 -144.311)" fill="#fff"/>
  </g>
</svg>
