<svg xmlns="http://www.w3.org/2000/svg" width="122.569" height="19.665" viewBox="0 0 122.569 19.665">
  <g id="Group_802" data-name="Group 802" transform="translate(-14775.088 -1374)">
    <path id="Path_750" data-name="Path 750" d="M177.083,260.191c0-1.755-1.057-3.283-3.527-3.283h-9.524v1.918h9.589a1.379,1.379,0,0,1,1.528,1.447,1.421,1.421,0,0,1-1.528,1.528h-4.275c-1.2,0-1.723.5-1.723,1.739v4.34h1.918v-3.966a.242.242,0,0,1,.276-.276h2.861l2.5,4.242h2.129l-2.552-4.389A3.232,3.232,0,0,0,177.083,260.191Z" transform="translate(14628.974 1117.287)" fill="#c51724"/>
    <path id="Path_751" data-name="Path 751" d="M134.051,264.238a1.571,1.571,0,0,1-1.8,1.723H130.3c-1.268,0-1.82-.634-1.82-1.723v-7.33h-1.951v7.477c0,2.308,1.2,3.495,3.543,3.495h2.308c2.341,0,3.56-1.186,3.56-3.495V260.27h-1.886Z" transform="translate(14658.949 1117.287)" fill="#c51724"/>
    <path id="Path_752" data-name="Path 752" d="M80.42,256.908H74.8v1.918H80.5a1.378,1.378,0,0,1,1.512,1.463,1.417,1.417,0,0,1-1.528,1.512h-3.95c-1.2,0-1.723.5-1.723,1.739v4.34H76.73v-3.966a.242.242,0,0,1,.276-.276H80.42a3.259,3.259,0,0,0,3.527-3.446C83.947,258.436,82.89,256.908,80.42,256.908Z" transform="translate(14700.292 1117.287)" fill="#c51724"/>
    <rect id="Rectangle_419" data-name="Rectangle 419" width="1.918" height="2.233" transform="translate(14819.058 1374.195)" fill="#b6091c"/>
    <path id="Path_753" data-name="Path 753" d="M236.555,262.4c0,3.673,1.755,5.477,4.958,5.477h8.557v-1.918h-8.557c-2.129,0-3.039-1.057-3.039-3.56,0-2.519.926-3.576,3.039-3.576h4.242v-1.918h-4.242C238.327,256.908,236.555,258.712,236.555,262.4Z" transform="translate(14571.012 1117.287)" fill="#c51724"/>
    <path id="Path_754" data-name="Path 754" d="M475.924,265.961c-1.122,0-1.658-.52-1.658-1.382,0-.894.569-1.333,1.674-1.333h5.445v-1.739h-5.4c-1.105,0-1.674-.406-1.674-1.3,0-.845.5-1.382,1.658-1.382h5.494v-1.918h-5.494c-2.584,0-3.674,1.235-3.674,2.991a2.446,2.446,0,0,0,1.544,2.47,2.515,2.515,0,0,0-1.577,2.519c0,1.707,1.056,2.991,3.657,2.991h5.559v-1.918Z" transform="translate(14382.628 1117.287)" fill="#c51724"/>
    <path id="Path_755" data-name="Path 755" d="M421.151,261.427h-2.568c-1.284,0-1.626-.634-1.626-1.3,0-.764.439-1.3,1.43-1.3h5.624v-1.918h-5.559c-2.438,0-3.414,1.333-3.414,3.153,0,1.528.683,3.17,3.608,3.17H421.2c1.349,0,1.723.65,1.723,1.365,0,.8-.471,1.365-1.512,1.365h-6.176l1,1.918h5.112c2.5,0,3.495-1.365,3.495-3.218C424.84,263.085,424.142,261.427,421.151,261.427Z" transform="translate(14428.365 1117.287)" fill="#c51724"/>
    <path id="Path_756" data-name="Path 756" d="M301.309,261.378H295.7v0h-1.918v3.575H295.7V263.3h5.608v4.584h1.934V256.908h-1.934Z" transform="translate(14525.274 1117.287)" fill="#c51724"/>
    <path id="Path_757" data-name="Path 757" d="M355.148,255.936a2.168,2.168,0,0,0-2.308,1.414l-3.852,9.752H351.1l3.478-8.826a.554.554,0,0,1,.553-.374.523.523,0,0,1,.536.374L359,267.1h2.129l-3.706-9.752A2.128,2.128,0,0,0,355.148,255.936Z" transform="translate(14481.154 1118.064)" fill="#c51724"/>
    <g id="Group_800" data-name="Group 800" transform="translate(14866.212 1374.34)">
      <path id="Path_758" data-name="Path 758" d="M532.343,267.088l-.56,1.577H528.63l3.942-11.036h3.942l3.941,11.036H537.3l-.56-1.577Zm2.2-6.149-1.072,3h2.144Z" transform="translate(-528.63 -257.628)"/>
      <path id="Path_759" data-name="Path 759" d="M591.263,265.511v3.153H588.11V257.628h5.518q3.941,0,3.941,3.942t-3.941,3.941Zm0-4.73v1.577h2.365a.788.788,0,0,0,0-1.577Z" transform="translate(-576.167 -257.628)"/>
      <path id="Path_760" data-name="Path 760" d="M641.282,265.511v3.153h-3.153V257.628h5.518q3.941,0,3.941,3.942t-3.941,3.941Zm0-4.73v1.577h2.365a.788.788,0,0,0,0-1.577Z" transform="translate(-616.143 -257.628)"/>
    </g>
    <path id="Path_761" data-name="Path 761" d="M396.291,305.127l2.529,6.149a5.87,5.87,0,0,0,7.8,3.137l9.469-4.647-8.575,2.759a5.87,5.87,0,0,1-7.218-3.2l-1.7-3.859Z" transform="translate(14443.348 1078.75)" fill="#c51724"/>
    <path id="Path_762" data-name="Path 762" d="M476.8,323s5.787-.742,5.654-.156a35.045,35.045,0,0,1-3.056,4.071S482.264,323.02,476.8,323Z" transform="translate(14379.005 1064.768)" fill="#c51724"/>
    <path id="Path_763" data-name="Path 763" d="M357.971,304.4h-6.449l.93-1.74,4.8-.045Z" transform="translate(14479.129 1080.76)" fill="#c51724"/>
    <rect id="Rectangle_420" data-name="Rectangle 420" width="1.918" height="3.552" transform="translate(14819.058 1374.195)"/>
  </g>
</svg>
