<svg xmlns="http://www.w3.org/2000/svg" width="20.596" height="24.2" viewBox="0 0 20.596 24.2">
  <g id="Group_416" data-name="Group 416" transform="translate(-296.515 -618.402)">
    <path id="Path_671" data-name="Path 671" d="M9.256,219.125c-.493-.048-.986-.089-1.478-.144a19.42,19.42,0,0,1-6.844-2,1.375,1.375,0,0,1-.824-1.136A9.129,9.129,0,0,1,.3,212.026a2.967,2.967,0,0,1,2.1-2.111,15.042,15.042,0,0,0,4.039-1.848.679.679,0,1,1,.74,1.13,14.489,14.489,0,0,1-4.179,1.935,2,2,0,0,0-1.542,1.762,9.488,9.488,0,0,0-.051,2.543.457.457,0,0,0,.28.412,17.87,17.87,0,0,0,5.1,1.631,20.826,20.826,0,0,0,8.231-.242,15.892,15.892,0,0,0,3.935-1.429.378.378,0,0,0,.185-.235,7.82,7.82,0,0,0-.108-3.024,1.813,1.813,0,0,0-1.35-1.374,15.045,15.045,0,0,1-4.27-1.964.7.7,0,0,1-.368-.752.679.679,0,0,1,1.041-.42c.427.251.845.519,1.282.753a11.827,11.827,0,0,0,2.594,1.057,3.208,3.208,0,0,1,2.47,2.735,10.027,10.027,0,0,1,.021,3.409,1.161,1.161,0,0,1-.657.911,18.367,18.367,0,0,1-5.914,1.931c-.785.12-1.58.17-2.37.253-.078.008-.154.025-.231.038Z" transform="translate(296.515 423.477)"/>
    <path id="Path_672" data-name="Path 672" d="M81.039,6.1a7.789,7.789,0,0,1,.686-3.489A4.661,4.661,0,0,1,85.281.086a5.636,5.636,0,0,1,3.386.445,4.552,4.552,0,0,1,2.516,3.048,10.488,10.488,0,0,1,.267,3.539,8.518,8.518,0,0,1-.677,2.952,4.527,4.527,0,0,1-3.353,2.84,4.9,4.9,0,0,1-4.35-1,5.3,5.3,0,0,1-1.524-2.377A10.735,10.735,0,0,1,81.039,6.1m9.106-.168c-.03-.376-.047-.771-.1-1.161a4.25,4.25,0,0,0-.687-1.937,3.34,3.34,0,0,0-2.318-1.4,4.063,4.063,0,0,0-3.075.578,3.665,3.665,0,0,0-1.484,2.709,10.7,10.7,0,0,0,.061,3.316,5.014,5.014,0,0,0,1.13,2.582,3.484,3.484,0,0,0,3.445.975,3.272,3.272,0,0,0,2.5-2.243,9.085,9.085,0,0,0,.528-3.423" transform="translate(220.54 618.402)" fill="#c51724"/>
    <rect id="Rectangle_235" data-name="Rectangle 235" width="20.596" height="24.2" transform="translate(296.515 618.402)" fill="none"/>
  </g>
</svg>
