<svg xmlns="http://www.w3.org/2000/svg" width="18.529" height="24.63" viewBox="0 0 18.529 24.63">
  <g id="Group_408" data-name="Group 408" transform="translate(-38.181 -573.023)">
    <path id="Path_655" data-name="Path 655" d="M11.475,24.63c-.495-.032-.989-.062-1.484-.1a18.758,18.758,0,0,1-3.558-.524c-.808-.218-.834-.271-.757-1.1a38.6,38.6,0,0,1,1.947-9.084A26.586,26.586,0,0,1,10.088,8.66a.365.365,0,0,0,.029-.394,9.045,9.045,0,0,1-.654-2.5A34.935,34.935,0,0,1,9.118.905c0-.347.057-.424.388-.541S10.177.122,10.513,0H10.8a.67.67,0,0,1,.253.532,1.853,1.853,0,0,0,.865,1.525A1.928,1.928,0,0,0,14.88.509.629.629,0,0,1,15.131,0h.289c.359.129.717.26,1.078.385a.411.411,0,0,1,.317.426,29.458,29.458,0,0,1-.581,6.162c-.1.458-.293.9-.431,1.346a.406.406,0,0,0,.019.281c.165.311.354.609.527.916a.388.388,0,0,1-.119.581,12.291,12.291,0,0,0,1.693,3.781c.228-.082.423.047.526.351a38.129,38.129,0,0,1,1.485,6.155c.156.955.241,1.922.336,2.886.042.429-.028.5-.447.64a12.568,12.568,0,0,1-2.78.524C16.238,24.508,14.512,24.619,11.475,24.63Z" transform="translate(32.896 573.023)" fill="#c51724"/>
    <path id="Path_656" data-name="Path 656" d="M102.321,95.858a.389.389,0,0,1-.385-.564c.245-.591.5-1.177.754-1.766.119-.28.233-.561.356-.839a.727.727,0,0,1,.144-.216q4.148-4.149,8.3-8.3c.336-.336.478-.336.817,0l1.292,1.292c.3.3.3.463,0,.767q-4.047,4.047-8.091,8.1a2.138,2.138,0,0,1-.724.49c-.741.3-1.472.627-2.208.941-.095.04-.194.071-.252.092m8.064-9.382-6.312,6.312.887.889,6.313-6.313-.888-.888m1.53-1.531-.922.916.907.909.92-.921-.9-.9m-8.369,8.534-.54,1.265,1.249-.538-.709-.727" transform="translate(-57.18 494.481)" fill="#c8c8c8"/>
    <path id="Path_657" data-name="Path 657" d="M193.934,11.436a.446.446,0,0,1-.373-.352,12.5,12.5,0,0,0-.506-1.263,1.546,1.546,0,0,0-.77-.728.473.473,0,0,1-.238-.339.454.454,0,0,1,.218-.35,1.768,1.768,0,0,0,.876-.885,7.4,7.4,0,0,0,.378-.956c.125-.388.216-.523.44-.511.33.018.348.288.43.523a8.643,8.643,0,0,0,.416,1.018,1.681,1.681,0,0,0,.826.8.456.456,0,0,1,.229.323.427.427,0,0,1-.187.346,2.182,2.182,0,0,0-1.118,1.345c-.092.229-.151.471-.222.708a.4.4,0,0,1-.4.317" transform="translate(-141.548 567.36)" fill="#c51724"/>
    <path id="Path_658" data-name="Path 658" d="M231.929,194.765c-.111.143-.168.295-.271.338a2.2,2.2,0,0,0-1.139,1.385,5.752,5.752,0,0,0-.2.64.388.388,0,0,1-.378.339c-.225,0-.326-.141-.4-.344a13.182,13.182,0,0,0-.518-1.283,1.519,1.519,0,0,0-.756-.709.492.492,0,0,1-.242-.339.419.419,0,0,1,.194-.341,2.037,2.037,0,0,0,1.048-1.194,6.87,6.87,0,0,0,.275-.816c.059-.209.168-.352.393-.35s.32.152.391.355a11.35,11.35,0,0,0,.471,1.2,1.6,1.6,0,0,0,.811.785c.119.053.2.2.32.335" transform="translate(-175.219 393.254)" fill="#c51724"/>
    <path id="Path_659" data-name="Path 659" d="M1.9,83.465a.434.434,0,0,1-.381-.345,10.651,10.651,0,0,0-.442-1.161,1.673,1.673,0,0,0-.85-.845A.45.45,0,0,1,0,80.79a.428.428,0,0,1,.19-.344,2.121,2.121,0,0,0,1.089-1.28,6.917,6.917,0,0,0,.242-.752.388.388,0,0,1,.384-.332c.214,0,.318.134.389.328.159.433.314.87.513,1.286a1.558,1.558,0,0,0,.771.727.472.472,0,0,1,.236.341.456.456,0,0,1-.221.349,1.825,1.825,0,0,0-.919.971A9.312,9.312,0,0,0,2.3,83.117a.425.425,0,0,1-.4.348" transform="translate(38.18 499.949)" fill="#c51724"/>
    <path id="Path_660" data-name="Path 660" d="M150.271,143.46c-.369,0-.553-.318-.408-.569a1.034,1.034,0,0,1,.172-.2q2.192-2.194,4.385-4.386c.04-.04.077-.082.12-.118a.384.384,0,0,1,.538.548c-.026.031-.056.057-.084.086q-2.218,2.218-4.439,4.434a1.772,1.772,0,0,1-.284.2" transform="translate(-102.024 443.802)" fill="#c8c8c8"/>
    <rect id="Rectangle_234" data-name="Rectangle 234" width="18.529" height="24.63" transform="translate(38.181 573.023)" fill="none"/>
  </g>
</svg>
