<svg xmlns="http://www.w3.org/2000/svg" width="25.037" height="24.694" viewBox="0 0 25.037 24.694">
  <g id="Group_411" data-name="Group 411" transform="translate(-123.606 -618)">
    <g id="Group_410" data-name="Group 410" transform="translate(123.606 618)">
      <path id="Path_661" data-name="Path 661" d="M3.449.965v.383c0,5.331-.032,10.663.015,15.994a9.8,9.8,0,0,1-1.932,6.4H12.007a1.625,1.625,0,0,1,.3.008.472.472,0,0,1,0,.934,1.262,1.262,0,0,1-.237.007q-5.711,0-11.422-.006a.856.856,0,0,1-.489-.145c-.233-.178-.191-.473.073-.745a7.742,7.742,0,0,0,2.113-4.038,9.866,9.866,0,0,0,.155-1.768Q2.509,9.356,2.5.721c0-.6.123-.721.734-.721H20.2c.592,0,.715.121.715.709q0,4.555,0,9.11a1.77,1.77,0,0,1-.013.3.463.463,0,0,1-.912.024,1.88,1.88,0,0,1-.023-.383q0-4.2,0-8.4V.965Z" transform="translate(0 0)" fill="#c51724"/>
      <path id="Path_662" data-name="Path 662" d="M149.934,161.653c.1-.058.145-.089.195-.113a.443.443,0,0,1,.586.118.424.424,0,0,1,0,.6c-.372.4-.756.783-1.154,1.152a.425.425,0,0,1-.618-.021q-.568-.543-1.111-1.112a.467.467,0,0,1,.663-.658,4.011,4.011,0,0,1,.345.415c.055-.156.085-.221.1-.29a6.129,6.129,0,1,1,6.935,7.363,5.968,5.968,0,0,1-5.185-1.618c-.283-.261-.318-.527-.116-.749s.482-.206.775.067a5.18,5.18,0,1,0-1.293-5.526c-.039.108-.069.219-.118.377" transform="translate(-136.009 -144.493)"/>
      <path id="Path_663" data-name="Path 663" d="M79.216,116.266h5.222a1.5,1.5,0,0,1,.267.006.471.471,0,0,1,.029.929,1.45,1.45,0,0,1-.325.014h-10.5c-.4,0-.618-.173-.618-.477s.216-.472.618-.473h5.311" transform="translate(-67.489 -107.065)" fill="#c51724"/>
      <path id="Path_664" data-name="Path 664" d="M79.2,76.589q-2.611,0-5.221,0a1.2,1.2,0,0,1-.35-.038.424.424,0,0,1-.311-.479.431.431,0,0,1,.389-.42,1.789,1.789,0,0,1,.3-.011h10.5c.425,0,.648.171.64.483s-.231.466-.633.466H79.2" transform="translate(-67.517 -69.655)" fill="#c51724"/>
      <path id="Path_665" data-name="Path 665" d="M76.834,157.852c-1,0-2,0-3,0-.372,0-.586-.224-.541-.542.037-.262.227-.4.564-.406.929,0,1.858,0,2.788,0,1.058,0,2.115,0,3.173,0,.316,0,.51.141.555.384a.471.471,0,0,1-.518.562c-1.008.005-2.017,0-3.025,0" transform="translate(-67.494 -144.49)" fill="#c51724"/>
      <path id="Path_666" data-name="Path 666" d="M233.069,184.874c0-.573,0-1.146,0-1.719,0-.372.188-.591.481-.582s.464.222.465.576c0,1.028-.005,2.055.01,3.083a.706.706,0,0,0,.179.432c.447.475.918.926,1.374,1.392a.453.453,0,0,1,.058.621.444.444,0,0,1-.579.15.7.7,0,0,1-.209-.162c-.526-.522-1.059-1.038-1.565-1.578a.879.879,0,0,1-.206-.522c-.026-.562-.01-1.126-.01-1.689" transform="translate(-214.626 -168.129)"/>
      <path id="Path_667" data-name="Path 667" d="M75.666,198.515c-.6,0-1.206,0-1.809,0-.378,0-.589-.178-.587-.475s.213-.472.592-.473q1.823,0,3.647,0c.439,0,.685.318.532.664a.489.489,0,0,1-.508.283q-.934,0-1.868,0" transform="translate(-67.474 -181.935)" fill="#c51724"/>
    </g>
  </g>
</svg>
