<svg xmlns="http://www.w3.org/2000/svg" width="19.989" height="20" viewBox="0 0 19.989 20">
  <g id="Group_404" data-name="Group 404" transform="translate(-273.695 -14)">
    <path id="Path_649" data-name="Path 649" d="M15.341,20c-.352-.057-.706-.1-1.054-.173a11.568,11.568,0,0,1-3.452-1.4,24.209,24.209,0,0,1-4.349-3.354,32.778,32.778,0,0,1-3.321-3.6,16.669,16.669,0,0,1-2.6-4.418A7.6,7.6,0,0,1,0,4.1,8.317,8.317,0,0,1,.233,2.528,2.049,2.049,0,0,1,1.18,1.261Q2.062.7,2.966.182a1.142,1.142,0,0,1,1.6.357q1.358,2,2.685,4.025A1.159,1.159,0,0,1,6.97,6.181c-.457.365-.923.721-1.385,1.08a.554.554,0,0,0-.172.829,12.578,12.578,0,0,0,2.069,2.848,20.415,20.415,0,0,0,3.252,2.938c.4.271.819.5,1.239.738a.514.514,0,0,0,.733-.178c.341-.435.679-.873,1.019-1.309a1.212,1.212,0,0,1,1.835-.3c1.212.808,2.42,1.623,3.639,2.42a1.648,1.648,0,0,1,.79.965V16.6a3.414,3.414,0,0,1-.181.427c-.35.594-.7,1.187-1.069,1.77a2.235,2.235,0,0,1-1.428,1.01c-.34.079-.688.129-1.032.192ZM.625,4.076A8.463,8.463,0,0,0,.987,6.251,13.339,13.339,0,0,0,3,10.148a31.576,31.576,0,0,0,5.321,5.661,17.038,17.038,0,0,0,4.542,2.885,7.16,7.16,0,0,0,3.867.566,2.032,2.032,0,0,0,1.584-1.032c.274-.494.58-.971.87-1.456A.542.542,0,0,0,19,15.925l-3.846-2.566a.548.548,0,0,0-.872.137c-.353.451-.7.9-1.055,1.355a1.179,1.179,0,0,1-1.61.333c-.3-.162-.592-.326-.88-.5a16.468,16.468,0,0,1-2.89-2.4A15.6,15.6,0,0,1,4.819,8.4,1.2,1.2,0,0,1,5.16,6.748c.457-.356.916-.709,1.37-1.068a.528.528,0,0,0,.13-.8Q5.354,2.912,4.042.95A.523.523,0,0,0,3.266.778c-.531.315-1.059.635-1.589.952a1.712,1.712,0,0,0-.845,1.1c-.094.41-.14.831-.207,1.248" transform="translate(273.696 14.001)" fill="#fff"/>
    <path id="Path_650" data-name="Path 650" d="M231.461,60.764c0,.091,0,.182,0,.273a.326.326,0,0,1-.648.058,1.026,1.026,0,0,1-.019-.193,5.661,5.661,0,0,0-4.519-5.407,11.48,11.48,0,0,0-1.162-.128.306.306,0,0,1-.292-.244.291.291,0,0,1,.14-.352.546.546,0,0,1,.26-.057A6.238,6.238,0,0,1,229.53,56.5a6.153,6.153,0,0,1,1.851,3.569c.023.148.041.3.058.445.009.084.011.169.016.253h0" transform="translate(59.883 -38.037)" fill="#fe0"/>
    <path id="Path_651" data-name="Path 651" d="M225.385,95.588A4.338,4.338,0,0,1,229.5,99.8c.008.275-.114.441-.325.445s-.327-.15-.34-.417a3.638,3.638,0,0,0-2.505-3.382,6.485,6.485,0,0,0-.953-.184c-.083-.015-.169-.011-.252-.027a.313.313,0,0,1-.278-.341.318.318,0,0,1,.319-.305c.071-.005.143,0,.214,0" transform="translate(59.843 -76.91)" fill="#fe0"/>
    <path id="Path_652" data-name="Path 652" d="M225.285,136.52a2.339,2.339,0,0,1,2.216,2.252.351.351,0,0,1-.311.4c-.186.015-.334-.122-.353-.358a1.645,1.645,0,0,0-.949-1.46,2.435,2.435,0,0,0-.655-.166c-.251-.041-.382-.137-.389-.33-.008-.228.147-.348.44-.339" transform="translate(59.849 -115.841)" fill="#fe0"/>
  </g>
</svg>
