<svg xmlns="http://www.w3.org/2000/svg" width="34" height="34" viewBox="0 0 34 34">
  <g id="Group_670" data-name="Group 670" transform="translate(-146 -118)">
    <g id="Ellipse_2" data-name="Ellipse 2" transform="translate(146 118)" fill="#fff" stroke="#c8c8c8" stroke-width="0.5">
      <circle cx="17" cy="17" r="17" stroke="none"/>
      <circle cx="17" cy="17" r="16.75" fill="none"/>
    </g>
    <g id="Group_404" data-name="Group 404" transform="translate(-119.838 111.852)">
      <path id="Path_649" data-name="Path 649" d="M14.034,18.3c-.322-.052-.646-.091-.964-.158a10.583,10.583,0,0,1-3.157-1.284,22.147,22.147,0,0,1-3.978-3.068A29.986,29.986,0,0,1,2.9,10.495,15.249,15.249,0,0,1,.514,6.454,6.951,6.951,0,0,1,0,3.754,7.608,7.608,0,0,1,.213,2.313,1.875,1.875,0,0,1,1.08,1.154Q1.886.644,2.714.167A1.045,1.045,0,0,1,4.175.494Q5.417,2.325,6.632,4.176a1.06,1.06,0,0,1-.255,1.479c-.418.334-.844.659-1.267.988a.507.507,0,0,0-.157.758,11.506,11.506,0,0,0,1.893,2.6A18.676,18.676,0,0,0,9.82,12.694c.362.248.75.461,1.133.675a.47.47,0,0,0,.671-.163c.312-.4.621-.8.932-1.2a1.108,1.108,0,0,1,1.678-.276c1.109.739,2.214,1.485,3.329,2.214a1.507,1.507,0,0,1,.723.883v.357a3.123,3.123,0,0,1-.166.39c-.32.543-.641,1.086-.978,1.619a2.044,2.044,0,0,1-1.306.924c-.311.072-.629.118-.944.175ZM.572,3.728A7.742,7.742,0,0,0,.9,5.719,12.2,12.2,0,0,0,2.747,9.283a28.886,28.886,0,0,0,4.867,5.178A15.586,15.586,0,0,0,11.769,17.1a6.55,6.55,0,0,0,3.538.518,1.859,1.859,0,0,0,1.449-.945c.251-.452.531-.888.8-1.332a.5.5,0,0,0-.171-.773l-3.518-2.348a.5.5,0,0,0-.8.126c-.323.412-.642.828-.965,1.24a1.078,1.078,0,0,1-1.473.3c-.271-.148-.542-.3-.8-.461a15.065,15.065,0,0,1-2.644-2.2,14.275,14.275,0,0,1-2.77-3.543,1.1,1.1,0,0,1,.312-1.514c.418-.326.838-.649,1.253-.977a.483.483,0,0,0,.119-.733Q4.9,2.664,3.7.869a.478.478,0,0,0-.71-.157c-.486.288-.969.581-1.454.871a1.566,1.566,0,0,0-.773,1c-.086.375-.128.76-.189,1.141" transform="translate(273.696 14.001)"/>
      <path id="Path_650" data-name="Path 650" d="M230.894,60.249c0,.083,0,.167,0,.25a.3.3,0,0,1-.592.053.939.939,0,0,1-.017-.177,5.179,5.179,0,0,0-4.134-4.946,10.5,10.5,0,0,0-1.063-.117.28.28,0,0,1-.267-.223.266.266,0,0,1,.128-.322.5.5,0,0,1,.238-.052,5.707,5.707,0,0,1,3.942,1.632,5.629,5.629,0,0,1,1.694,3.265c.021.135.038.271.053.407.009.077.01.154.015.232h0" transform="translate(58.947 -38.265)" fill="#c51724"/>
      <path id="Path_651" data-name="Path 651" d="M225.339,95.588a3.968,3.968,0,0,1,3.768,3.853c.007.251-.1.4-.3.407s-.3-.137-.311-.381a3.328,3.328,0,0,0-2.292-3.094,5.931,5.931,0,0,0-.872-.169c-.076-.014-.155-.01-.23-.025a.286.286,0,0,1-.254-.312.291.291,0,0,1,.292-.279c.065,0,.131,0,.2,0" transform="translate(58.906 -77.309)" fill="#c51724"/>
      <path id="Path_652" data-name="Path 652" d="M225.248,136.52a2.139,2.139,0,0,1,2.028,2.06.322.322,0,0,1-.284.368c-.17.013-.305-.112-.323-.328a1.505,1.505,0,0,0-.869-1.336,2.227,2.227,0,0,0-.6-.152c-.229-.038-.349-.125-.356-.3-.008-.209.135-.318.4-.31" transform="translate(58.912 -116.41)" fill="#c51724"/>
    </g>
  </g>
</svg>
