<svg xmlns="http://www.w3.org/2000/svg" width="24.292" height="24.292" viewBox="0 0 24.292 24.292">
  <g id="Group_412" data-name="Group 412" transform="translate(-204.906 -618.402)">
    <path id="Path_668" data-name="Path 668" d="M41.463,159.033c-.421-.059-.843-.107-1.261-.179a12.061,12.061,0,0,1-6.845-3.682c-.044-.046-.086-.092-.131-.137a.364.364,0,0,0-.061-.035,1.591,1.591,0,0,0-.019.18c0,.419.013.838.014,1.257a.5.5,0,0,1-.5.566.492.492,0,0,1-.5-.537q-.03-1.47-.049-2.941a.5.5,0,0,1,.552-.563q1.47-.005,2.941,0a.51.51,0,0,1,.548.5.5.5,0,0,1-.54.5c-.63.006-1.261,0-1.941,0,.071.094.112.155.16.21a10.915,10.915,0,0,0,7.194,3.767A11.112,11.112,0,0,0,53,149.647a10.824,10.824,0,0,0,.1-5.071.55.55,0,0,1,.152-.606.421.421,0,0,1,.527-.062.743.743,0,0,1,.289.4c.107.525.17,1.059.251,1.589.012.077.028.154.043.231v1.518c-.014.061-.031.121-.04.183-.082.554-.134,1.114-.248,1.661a12.175,12.175,0,0,1-9.743,9.355c-.45.075-.9.126-1.356.188Z" transform="translate(174.831 483.662)" fill="#c51724"/>
    <path id="Path_669" data-name="Path 669" d="M12.905,0c.429.059.86.1,1.286.179a12.091,12.091,0,0,1,6.9,3.769c.038.04.077.079.116.118,0,0,.014,0,.048.006,0-.433,0-.863,0-1.294,0-.095-.005-.19,0-.284a.5.5,0,0,1,.507-.462.47.47,0,0,1,.49.473q.013,1.541,0,3.083a.47.47,0,0,1-.485.481q-1.529.011-3.059,0a.5.5,0,0,1,.007-1c.561-.009,1.122,0,1.684,0h.312c-.087-.106-.137-.171-.192-.232a10.959,10.959,0,0,0-7.18-3.747,11.144,11.144,0,0,0-12.1,13.374.907.907,0,0,1,.015.349.492.492,0,0,1-.489.373.486.486,0,0,1-.484-.409C.2,14.252.125,13.728.046,13.2L0,12.905V11.387c.053-.406.093-.814.161-1.217A11.953,11.953,0,0,1,3.5,3.633,11.9,11.9,0,0,1,10.054.187C10.5.109,10.943.061,11.387,0Z" transform="translate(204.906 618.402)" fill="#c51724"/>
    <path id="Path_670" data-name="Path 670" d="M111.922,114.625c0-.537,0-1.075,0-1.612a1.023,1.023,0,0,1,1.1-1.1q1.577-.006,3.154,0a2.579,2.579,0,0,1,1.925.825q2.235,2.324,4.479,4.641a1.516,1.516,0,0,1-.009,2.238q-1.471,1.481-2.951,2.951a1.505,1.505,0,0,1-2.2.016q-2.351-2.259-4.692-4.528a2.56,2.56,0,0,1-.8-1.913c0-.506,0-1.012,0-1.518m1.02-1.683c0,1.085.005,2.143,0,3.2a1.605,1.605,0,0,0,.522,1.224q2.3,2.211,4.592,4.429a.55.55,0,0,0,.915-.013q1.418-1.416,2.834-2.834c.327-.328.327-.574,0-.913q-2.206-2.287-4.412-4.575a1.623,1.623,0,0,0-1.243-.532c-.988.008-1.976,0-2.965,0-.07,0-.139.006-.241.011" transform="translate(100.066 513.572)"/>
  </g>
</svg>
