<svg id="Group_548" data-name="Group 548" xmlns="http://www.w3.org/2000/svg" xmlns:xlink="http://www.w3.org/1999/xlink" width="19.759" height="20" viewBox="0 0 19.759 20">
  <defs>
    <clipPath id="clip-path">
      <rect id="Rectangle_265" data-name="Rectangle 265" width="19.759" height="20" fill="#fff"/>
    </clipPath>
  </defs>
  <g id="Group_547" data-name="Group 547" clip-path="url(#clip-path)">
    <path id="Path_687" data-name="Path 687" d="M9.9,19.689A9.711,9.711,0,0,1,5.056,18.3a.413.413,0,0,0-.424-.027c-1.278.552-2.562,1.091-3.842,1.64a.529.529,0,0,1-.65-.052.535.535,0,0,1-.072-.63c.493-1.32.975-2.643,1.471-3.961a.515.515,0,0,0-.045-.49,9.608,9.608,0,0,1,0-10.247A9.06,9.06,0,0,1,8.022.144a10.094,10.094,0,0,1,11.4,7.389,9.573,9.573,0,0,1-6.371,11.723,10.217,10.217,0,0,1-3.151.433M1.335,18.617c.106-.038.167-.056.225-.08.976-.414,1.956-.82,2.926-1.249a.828.828,0,0,1,.861.061,8.774,8.774,0,0,0,6.5,1.224,8.627,8.627,0,0,0,6.75-10.3A9.166,9.166,0,0,0,8.483,1.059,8.138,8.138,0,0,0,2.306,5.081a8.642,8.642,0,0,0,.135,9.376.949.949,0,0,1,.1.927c-.413,1.055-.793,2.123-1.2,3.233" transform="translate(0 -0.001)" fill="#fff"/>
    <path id="Path_688" data-name="Path 688" d="M74.153,71.99a7.757,7.757,0,0,1-4-1.491A10.924,10.924,0,0,1,66.1,65.548a6.7,6.7,0,0,1-.456-1.932,2.591,2.591,0,0,1,.461-1.749,3.8,3.8,0,0,1,1.6-1.378,1.106,1.106,0,0,1,1.5.477q.466.755.925,1.514a4.956,4.956,0,0,1,.241.449,1.007,1.007,0,0,1-.248,1.376,9.934,9.934,0,0,1-.761.644c-.141.111-.179.23-.081.374.3.448.581.917.926,1.331a6.745,6.745,0,0,0,1.9,1.607c.4.224.4.216.693-.13.187-.224.372-.45.573-.662a.993.993,0,0,1,1.258-.237c.189.093.376.189.556.3.486.292.968.59,1.452.886a1.092,1.092,0,0,1,.474,1.577,3.373,3.373,0,0,1-2.582,1.994,2.845,2.845,0,0,1-.388,0m.128-.953a2.5,2.5,0,0,0,2-1.525.277.277,0,0,0-.1-.234c-.59-.37-1.189-.724-1.782-1.09a.284.284,0,0,0-.433.073c-.233.29-.477.573-.726.85a.853.853,0,0,1-.952.255,3.858,3.858,0,0,1-.756-.322A8.5,8.5,0,0,1,69.384,67.2a5.505,5.505,0,0,1-1.02-1.558,1.021,1.021,0,0,1,.343-1.4c.214-.186.43-.37.655-.543a.3.3,0,0,0,.084-.47c-.349-.555-.692-1.114-1.018-1.683-.118-.206-.243-.233-.431-.127a2.777,2.777,0,0,0-1.164,1.14,2,2,0,0,0-.209.855,4.617,4.617,0,0,0,.411,1.837,10.015,10.015,0,0,0,4.25,4.816,6.376,6.376,0,0,0,3,.971" transform="translate(-61.374 -56.448)" fill="#fe0"/>
  </g>
</svg>
